<svg aria-hidden="true" style="position:absolute;width:0;height:0;overflow:hidden" xmlns="http://www.w3.org/2000/svg"><defs><symbol id="mail" viewBox="0 0 43 32"><path d="M38.667 0H4C1.787 0 0 1.787 0 4v24c0 2.213 1.787 4 4 4h34.667c2.213 0 4-1.787 4-4V4c0-2.213-1.787-4-4-4zm0 2.667h.011c.189 0 .368.039.531.11l-.009-.003-17.867 15.467L3.466 2.774a1.32 1.32 0 0 1 .523-.107h34.677zm0 26.666H4A1.333 1.333 0 0 1 2.667 28V5.6l17.787 15.413a1.328 1.328 0 0 0 1.761-.001l-.001.001L40.001 5.6V28c0 .736-.597 1.333-1.333 1.333z"/></symbol><symbol id="tel" viewBox="0 0 20 32"><path d="M17 0H3C1.4 0 0 1.4 0 3v26c0 1.6 1.4 3 3 3h14c1.6 0 3-1.4 3-3V3c0-1.6-1.4-3-3-3zM3 2h14c.6 0 1 .4 1 1v21H2V3c0-.6.4-1 1-1zm14 28H3a1 1 0 0 1-1-1v-3h16v3c0 .6-.4 1-1 1z"/></symbol><symbol id="antenna" viewBox="0 0 32 32"><path d="m30.766 22.08-8.457-8.503.96-4.571c.229.046.457.137.777.137h.025a2.149 2.149 0 1 0-2.032-1.448l-.005-.015-4.983.594L8.96.137C8.869.046 8.731 0 8.594 0s-.274.046-.366.137L6.719 1.646a.525.525 0 0 0 0 .777l.823.777c-1.129 2.053-1.794 4.499-1.794 7.1a14.9 14.9 0 0 0 4.444 10.635l.002.002-.046.549v6.217H3.702a2.651 2.651 0 0 0-2.651 2.651v1.051c0 .32.274.549.549.549h24.549c.274 0 .503-.229.503-.549v-1.051a2.653 2.653 0 0 0-2.651-2.651h-6.4V24.96c.899.191 1.932.3 2.991.3 2.586 0 5.02-.653 7.146-1.803l-.08.039.869.823c.091.091.229.137.366.137s.274-.046.366-.137l1.509-1.509a.525.525 0 0 0 0-.777zM23.314 6.217a1.05 1.05 0 1 1 .781 1.828h-.003c-.021.002-.046.002-.072.002a1.05 1.05 0 0 1-.706-1.83l.001-.001zm-1.234 3.52-.594 2.926-1.189-1.143 1.783-1.783zm-.594-.914-1.92 1.92-1.509-1.509 3.429-.411zM24 28.8c.914 0 1.6.731 1.6 1.6v.549H2.149V30.4c0-.914.686-1.6 1.6-1.6H24zm-7.451-2.149v1.097H11.2v-1.097h5.349zM11.2 25.6v-4.069c0-1.28 1.189-2.331 2.651-2.331 1.509 0 2.697 1.051 2.697 2.331V25.6h-5.349zm6.4-1.691v-2.423c0-1.829-1.691-3.383-3.749-3.383h-.054a3.746 3.746 0 0 0-3.183 1.767l-.009.016a13.8 13.8 0 0 1-3.827-9.559c0-2.319.57-4.505 1.578-6.426l-.036.076L26.926 22.72c-1.816.94-3.965 1.492-6.242 1.492a13.86 13.86 0 0 1-3.177-.367l.094.019zm11.291-.686-.731-.823L8.594 2.743l-.823-.686.777-.777 7.909 8L29.714 22.4l-.777.777z"/><path fill="#2196f3" style="fill:var(--color1, #2196f3)" d="M13.897 20.251a1.6 1.6 0 1 0 0 3.2 1.6 1.6 0 1 0 0-3.2zm.366 2.012a.55.55 0 1 1-.412-.915h.003a.55.55 0 0 1 .409.915z"/></symbol><symbol id="astronaut" viewBox="0 0 32 32"><path fill="#2196f3" style="fill:var(--color1, #2196f3)" d="M32 4.526a.726.726 0 0 0-.457-.366l-1.92-.274-.823-1.737c-.183-.366-.777-.366-.96 0l-.914 1.737-1.829.274a.55.55 0 0 0-.319.914l1.371 1.371-.32 1.874c-.002.015-.002.033-.002.051a.55.55 0 0 0 .783.497l-.003.001 1.691-.914 1.691.914a.55.55 0 0 0 .777-.551v.002l-.32-1.92 1.371-1.371c.183-.091.229-.32.137-.503zm-2.469 1.325a.655.655 0 0 0-.183.457l.183 1.143-1.006-.549a.543.543 0 0 0-.461.001l.003-.001-1.006.549.183-1.143c0-.137 0-.32-.137-.457l-.823-.777 1.097-.183c.183 0 .32-.137.457-.274l.457-1.006.503.96c.091.137.229.274.411.274l1.097.183-.777.777zm-3.382 14.675h-1.097v1.051h1.097v-1.006zm0 2.148h-1.097v1.051h1.097v-1.051zm1.051-1.097h-1.051v1.097H27.2v-1.097zm-2.149 0H24v1.097h1.051v-1.097zm-2.651 4.8h-1.051v1.097H22.4v-1.097zm0 2.149h-1.051v1.051H22.4v-1.051zm1.051-1.097H22.4v1.097h1.051v-1.097zm-2.102 0h-1.097v1.097h1.097v-1.097zM16 24.229h-1.051v1.097H16v-1.097zm0 2.148h-1.051v1.097H16v-1.097zm1.051-1.051H16v1.051h1.051v-1.051zm-2.102 0h-1.097v1.051h1.097v-1.051zm-9.098-19.2H4.8v1.051h1.051V6.126zm0 2.103H4.8v1.097h1.051V8.229zM6.949 7.177H5.852v1.097h1.097V7.177zm-2.149 0H3.749v1.097H4.8V7.177z"/><path d="M24.686 14.171a1.789 1.789 0 0 0-1.132-.73l-.011-.002c-.457-.046-.96.091-1.371.366l-1.234.96-1.92 1.417-1.371-.549c2.403-1.128 4.037-3.528 4.037-6.309a6.949 6.949 0 0 0-6.867-6.948h-.004A6.95 6.95 0 0 0 9.023 13.1l-.016-.027H5.944l-3.2 1.646-1.92.914H.733a1.784 1.784 0 1 0 1.837 3.058l-.008.004 1.371-.731 2.286-1.143H7.59L2.196 22.17.825 23.541c-.286.296-.462.699-.462 1.143s.176.847.462 1.143c.3.313.722.507 1.189.507s.889-.194 1.188-.507l.001-.001 1.371-1.28 1.691-1.28.914.914-1.783 1.737-1.28 1.371c-.299.298-.484.71-.484 1.166s.185.868.484 1.166c.305.302.725.488 1.189.488s.883-.186 1.189-.488l3.428-3.428 1.006-.96 5.166-5.714 3.474.503a.493.493 0 0 0 .278-.001l-.004.001.046-.046h.046l3.2-2.149.046-.046h.046l1.28-1.234c.345-.326.559-.786.559-1.297a1.78 1.78 0 0 0-.334-1.04l.004.005zM2.194 17.783c-.183.091-.366.091-.594 0a.733.733 0 0 1-.184-1.233l.001-.001 1.28-.64.32.914.137.457-.96.457zm3.475-1.829-1.554.777L3.841 16l-.183-.549 2.011-1.006v1.554zm15.085-6.628c0 .914-.183 1.783-.594 2.56L16 9.966a1.83 1.83 0 0 0-.771-1.368l-.006-.004 1.463-4.846A5.858 5.858 0 0 1 20.8 9.325zm-11.748 0a5.899 5.899 0 0 1 6.564-5.804l-.027-.002-1.417 4.709a1.83 1.83 0 0 0-1.92 1.827v.002a1.83 1.83 0 0 0 3.516.928l.004-.012 3.84 1.783A5.898 5.898 0 0 1 8.96 9.286v-.004zm5.943.777c0 .457-.366.823-.823.823s-.777-.366-.777-.823.32-.777.777-.777.823.366.823.777zM2.514 25.189c-.229.183-.64.183-.869 0a.596.596 0 0 1-.001-.913l.001-.001.96-.914.869.823-1.006.96zm3.2 3.657a.515.515 0 0 1-.823 0 .595.595 0 0 1 .001-.823l.914-.914.457.366.457.457-1.006.914zm3.475-3.429-1.737 1.737-.457-.366-.411-.457 1.783-1.783.091-.137v-.183l.046-.091v-.183l-.137-.137v-.046l-1.6-1.6h-.091l-.091-.091h-.091l-.091-.046H6.22l-.091.046h-.183l-1.737 1.371-.914-.914 2.377-2.377 4.389 4.297-.914.914zm6.857-7.04H16a.5.5 0 0 0-.411.137v.046l-4.8 5.211-4.343-4.251 2.834-2.834a.549.549 0 0 0-.364-.914H6.674v-1.6h3.109a6.93 6.93 0 0 0 5.003 2.127c.445 0 .881-.042 1.303-.122l-.043.007.137.091 2.423.914.137.777.183.914-2.971-.457zm4.023.183-.32-1.554 1.463-1.051.366.457.549.777-2.057 1.371zm3.748-2.834-.823.823-.914-1.28.823-.594c.137-.137.32-.183.503-.183a.733.733 0 0 1 .457 1.235z"/><path d="m13.623 18.56-2.194-2.149a.525.525 0 0 0-.777 0L8.503 18.56a.546.546 0 0 0 0 .732l2.149 2.149a.551.551 0 0 0 .778 0l2.149-2.149a.546.546 0 0 0 0-.732zm-2.56 1.737-1.371-1.371 1.371-1.371 1.371 1.371-1.371 1.371zm6.08-15.268-.229 1.097c.046 0 1.737.457 1.737 2.149h1.006c0-2.057-1.646-2.971-2.56-3.2zm2.56 4.297h-1.051v1.051h1.006V9.326z"/></symbol><symbol id="clock" viewBox="0 0 32 32"><path d="M31.314 15.314v-.016C31.314 6.84 24.458-.016 16-.016S.686 6.84.686 15.298c0 6.859 4.51 12.665 10.726 14.615l.108.029c.137 0 .229-.046.366-.137.137-.046.229-.183.274-.366L16 17.233a1.92 1.92 0 1 0-.834-3.652l.012-.005-5.12-5.12a.645.645 0 0 0-1.103.457c0 .179.072.34.189.457l5.12 5.12a1.87 1.87 0 0 0 .545 2.282l.004.003-3.657 11.703c-5.431-2.02-9.229-7.159-9.229-13.186 0-7.751 6.283-14.034 14.034-14.034s14.034 6.283 14.034 14.034c0 5.684-3.379 10.578-8.237 12.785l-.088.036-.366-1.874a.642.642 0 0 0-1.053-.365l.001-.001-3.84 3.429a.639.639 0 0 0 .224 1.095l.005.001 4.891 1.6a.64.64 0 0 0 .823-.736l.001.004-.366-1.829c5.527-2.379 9.326-7.778 9.326-14.065v-.016.001zM16 14.629a.64.64 0 0 1 0 1.28.64.64 0 0 1 0-1.28zm2.103 14.857 2.194-1.966.594 2.834-2.789-.914z"/><path fill="#2196f3" style="fill:var(--color1, #2196f3)" d="M15.36 3.2v1.28a.64.64 0 0 0 1.28 0V3.2a.64.64 0 0 0-1.28 0zM3.886 14.629a.663.663 0 0 0 0 1.326h1.28a.64.64 0 0 0 0-1.28h-1.28zm24.228 1.325a.64.64 0 0 0 0-1.28h-1.28a.64.64 0 0 0 0 1.28h1.28z"/></symbol><symbol id="diagram" viewBox="0 0 32 32"><path fill="#2196f3" style="fill:var(--color1, #2196f3)" d="M14.903 14.949H16v4.8h-1.097v-4.8zm4.297 2.148h1.051v2.651H19.2v-2.651zm-8.549 1.6h1.097v1.051h-1.097v-1.006zm-3.2-.548h1.097v1.6H7.451v-1.6z"/><path d="M1.6 28.297h25.6c.869 0 1.6-.731 1.6-1.6v-2.149c0-.914-.731-1.6-1.6-1.6h-.549V9.691l3.017-2.88a1.6 1.6 0 1 0-.727-.767l-.004-.01-2.286 2.149V6.949c0-.869-.731-1.6-1.6-1.6H3.748c-.914 0-1.6.731-1.6 1.6v16h-.549c-.914 0-1.6.731-1.6 1.6v2.149c0 .914.731 1.6 1.6 1.6zM30.4 4.846a.55.55 0 1 1-.004 1.051l.004.001a.55.55 0 0 1-.004-1.051l.004-.001zM3.2 6.949c0-.274.229-.503.549-.503h21.303c.274 0 .549.229.549.503v2.286l-1.097 1.006V8.047c0-.32-.229-.549-.503-.549h-19.2a.557.557 0 0 0-.549.549V21.35c0 .32.274.549.549.549h19.2c.274 0 .503-.229.503-.549v-9.646l1.097-1.006v12.251h-22.4v-16zM8 13.897h-.022a1.6 1.6 0 1 0 1.12 2.743l1.829.914a.556.556 0 0 0 .686-.091l3.931-4.434 3.84 2.88a.55.55 0 0 0 .686 0l3.383-3.2v8.137H5.35V8.549h18.103v2.697l-3.749 3.566-3.931-2.926a.554.554 0 0 0-.731.046l-3.977 4.526-1.463-.777v-.137c0-.914-.686-1.6-1.554-1.6zm.549 1.6a.55.55 0 0 1-1.098 0 .55.55 0 0 1 1.098 0zm3.2 8.549h5.303v.503c0 .32-.229.549-.549.549h-4.251c-.274 0-.503-.229-.503-.549v-.503zm-10.698.503c0-.274.274-.503.549-.503h9.051v.503c0 .914.731 1.6 1.6 1.6h4.251c.914 0 1.6-.686 1.6-1.6v-.503h9.097c.274 0 .503.229.503.503v2.149c0 .274-.229.549-.503.549h-25.6c-.274 0-.549-.274-.549-.549v-2.149z"/></symbol><symbol id="facebook" viewBox="0 0 32 32"><path d="M21.28 5.28h3.04V.16L20 0c-4.16 0-7.04 2.72-7.04 7.52V12H8v5.76h4.8V32h5.6V17.6h4.48l.8-5.6H18.4V8.16c0-1.6.48-2.88 2.72-2.88z"/></symbol><symbol id="instagram" viewBox="0 0 32 32"><path d="M31.968 9.408a11.64 11.64 0 0 0-.763-3.968l.027.08a7.858 7.858 0 0 0-1.854-2.83l-.002-.002c-.8-.8-1.76-1.44-2.832-1.84a11.483 11.483 0 0 0-3.875-.752h-.013c-1.458-.07-3.167-.109-4.885-.109-.6 0-1.199.005-1.797.014l.09-.001c-4.352 0-4.896.016-6.592.096C7.76.16 6.592.448 5.584.832a7.992 7.992 0 0 0-2.832 1.856c-.816.8-1.44 1.76-1.856 2.832A11.473 11.473 0 0 0 .16 9.397v.011c-.07 1.458-.109 3.167-.109 4.885 0 .6.005 1.199.014 1.797L.064 16c0 4.352 0 4.896.08 6.592.03 1.405.303 2.737.779 3.968l-.027-.08a7.782 7.782 0 0 0 1.856 2.832c.8.816 1.76 1.44 2.832 1.856 1.008.384 2.176.656 3.872.736 1.712.08 2.24.096 6.592.096s4.896-.016 6.608-.096a11.648 11.648 0 0 0 3.952-.763l-.08.027a8.242 8.242 0 0 0 4.669-4.633l.019-.055c.384-1.024.672-2.176.736-3.888.08-1.696.096-2.24.096-6.592 0-4.336 0-4.88-.08-6.592zm-2.88 13.072c-.064 1.552-.32 2.4-.544 2.96a5.34 5.34 0 0 1-3.004 3.027l-.036.013c-.56.224-1.424.48-2.976.544-1.68.08-2.192.096-6.464.096a114.015 114.015 0 0 1-6.706-.105l.242.009c-1.568-.064-2.4-.32-2.96-.544a4.96 4.96 0 0 1-1.839-1.199L4.8 27.28a4.975 4.975 0 0 1-1.189-1.79l-.011-.034a8.64 8.64 0 0 1-.544-2.972v-.004a108.653 108.653 0 0 1-.095-6.546l-.001.083c0-4.272.016-4.784.096-6.464.064-1.568.32-2.4.544-2.976a4.774 4.774 0 0 1 1.2-1.824 4.98 4.98 0 0 1 1.806-1.189l.034-.011c.56-.224 1.408-.48 2.976-.544 1.68-.08 2.192-.096 6.448-.096 4.288 0 4.8 0 6.464.096 1.568.064 2.4.32 2.976.544a4.831 4.831 0 0 1 1.84 1.2 4.966 4.966 0 0 1 1.2 1.824c.208.576.48 1.424.544 2.976.08 1.68.096 2.192.096 6.464s-.016 4.768-.096 6.464z"/><path d="M16.064 7.776a8.224 8.224 0 1 0 0 16.448 8.224 8.224 0 1 0 0-16.448zm0 13.552a5.327 5.327 0 1 1 0-10.656 5.327 5.327 0 1 1 0 10.656zM26.528 7.456a1.92 1.92 0 0 1-3.84 0 1.92 1.92 0 0 1 3.84 0z"/></symbol><symbol id="linkedin" viewBox="0 0 32 32"><path d="M32 32V20.32c0-5.76-1.28-10.24-8-10.24-3.2 0-5.28 1.76-6.24 3.52v-3.04H11.2V32h6.56V21.44c0-2.88.48-5.44 4-5.44 3.36 0 3.52 3.2 3.52 5.6V32H32zM.48 10.56H7.2V32H.48V10.56zM3.84 0C1.76 0 0 1.6 0 3.84c0 2.08 1.6 3.84 3.84 3.84a3.84 3.84 0 1 0 0-7.68z"/></symbol><symbol id="twitter" viewBox="0 0 32 32"><path d="M32 6.08c-1.12.48-2.4.8-3.84.96a6.441 6.441 0 0 0 2.867-3.475l.013-.045c-1.28.8-2.56 1.28-4.16 1.6a6.56 6.56 0 0 0-11.192 5.965l-.009-.044c-5.44-.32-10.24-2.88-13.44-6.88a6.487 6.487 0 0 0-.894 3.307 6.554 6.554 0 0 0 2.95 5.478l.025.015a6.375 6.375 0 0 1-3.072-.817l.032.017c0 3.2 2.24 5.92 5.28 6.4a6.43 6.43 0 0 1-3.081.153l.04.007c.96 2.72 3.2 4.64 6.24 4.64a13.036 13.036 0 0 1-8.129 2.822c-.575 0-1.141-.037-1.697-.109l.066.007c2.88 1.92 6.4 2.72 10.08 2.72h.011c10.25 0 18.56-8.31 18.56-18.56 0-.225-.004-.449-.012-.672l.001.032c1.44-.96 2.4-2.08 3.36-3.36z"/></symbol><symbol id="logo-1" viewBox="0 0 57 32"><path d="M20.267 3.733 24 7.253h-6.933v17.173H35.2v-6.56l3.733 3.52V3.733H20.266zM35.04 17.44 24.427 7.467H35.04v10.027zm-3.307 4.48H19.946V10.4h.8v10.72h10.987v.8zm-9.013 4.8-.427.907-.427-.96h-.373l.64 1.173v.747h.32v-.747l.64-1.173h-.373zm.533 1.92.16-.48h.747l.16.48h.32L24 26.667h-.32l-.747 1.973h.32zm.534-1.493.267.747h-.533l.267-.747zm1.76.693-.107.267c0 .16.053.267.213.373.107.107.213.16.427.16.16 0 .32 0 .48-.16l.107.16h.373l-.267-.373c.107-.107.16-.32.16-.533h-.267c0 .107 0 .213-.107.32l-.373-.427.16-.107.16-.16a.426.426 0 0 0-.053-.534.475.475 0 0 0-.302-.107h-.019.001c-.015-.002-.033-.002-.05-.002a.528.528 0 0 0-.324.11l.001-.001a.483.483 0 0 0-.16.373l.053.16.16.267c-.103.059-.191.13-.266.212l-.001.001zm.853.427a.526.526 0 0 1-.32.107l-.213-.053a.266.266 0 0 1-.107-.213c0-.107.053-.213.16-.267h.053l.427.427zm-.373-.8-.107-.32v-.16h.373l.053.16-.053.16-.213.16zm3.093 1.013c.16-.107.213-.267.213-.48h-.32c0 .16 0 .213-.107.267-.053.107-.16.107-.32.107h-.013a.375.375 0 0 1-.306-.159l-.001-.001-.107-.48v-.16c0-.213.053-.373.16-.48.053-.107.16-.107.32-.107l.267.053.107.32h.32a.684.684 0 0 0-.213-.533l-.533-.107c-.107 0-.267 0-.373.107l-.267.267a1.045 1.045 0 0 0-.109.469l.002.067v-.003.16c0 .16 0 .32.107.427.053.16.16.267.267.32l.373.107c.267 0 .427-.053.533-.16zm1.973-.267.053-.533v-.053c0-.213 0-.373-.107-.533a.746.746 0 0 0-.64-.373c-.16 0-.32 0-.427.107a.547.547 0 0 0-.267.32c-.107.107-.107.267-.107.48v.107c0 .16 0 .32.107.48 0 .16.16.267.267.32l.427.107c.16 0 .267 0 .373-.107.16-.053.213-.213.32-.32zm-.373-1.066.107.48v.107c0 .213 0 .373-.107.48l-.32.16a.372.372 0 0 1-.372-.159l-.001-.001-.107-.533v-.053c0-.213 0-.373.107-.533l.373-.107c.107 0 .213 0 .32.16z"/></symbol><symbol id="logo-2" viewBox="0 0 57 32"><path d="M26.72 3.2h-.587a12.244 12.244 0 0 0-.711 0h.018c-1.973 0-3.893.533-5.653 1.333l-.267.107v11.893l.533-.213c1.743-.592 3.752-.959 5.84-1.013l.027-.001v1.6h-.587a17.212 17.212 0 0 0-7.397 2.072l.091-.045V3.786c2.29-1.369 5.049-2.181 7.998-2.187h.268c1.008.045 1.959.179 2.879.394l-.105-.021v1.493c-.64-.16-1.28-.213-1.92-.267h-.48zm2.667 1.547h1.067a16.718 16.718 0 0 0 8.138-2.124l-.085.044V17.6c-2.273 1.328-5.003 2.113-7.918 2.113-1.086 0-2.146-.109-3.171-.316l.102.017V4.481c.556.129 1.214.224 1.886.265l.034.002zm7.573.106-.533.16-1.493.48a17.84 17.84 0 0 1-4.485.558c-.336 0-.67-.009-1.001-.027l.046.002h-.427v12.107h.32l1.067.107a14.289 14.289 0 0 0 6.429-1.531l-.082.038.213-.107V4.853zM19.04 24.107a.798.798 0 0 0-.533-.213h-.374a.802.802 0 0 0-.534.802v-.002 2.027c0 .16 0 .32.107.427 0 .107.107.213.16.267l.32.16h.587a.855.855 0 0 0 .533-.791v-.222h-.533v.32l-.213.213h-.107a.266.266 0 0 1-.266-.106l-.001-.001-.053-.32v-1.92l.053-.267a.268.268 0 0 1 .245-.161l.023.001h-.001a.27.27 0 0 1 .213.158l.001.002c.107.053.107.16.107.267v.16h.533v-.213a.953.953 0 0 0-.267-.64zm3.147 0a.955.955 0 0 0-.914-.158l.007-.002a.294.294 0 0 0-.267.16l-.213.267-.053.373v1.973l.053.373c0 .107.107.213.213.267.053.107.16.16.267.16a.903.903 0 0 0 .646-.002l-.006.002a.294.294 0 0 0 .267-.16.85.85 0 0 0 .267-.62v-.021.001-1.973l-.053-.373c0-.107-.107-.213-.213-.267zm-.214 2.613v.005a.373.373 0 0 1-.641.261.372.372 0 0 1-.107-.261v-1.984a.373.373 0 0 1 .641-.261c.066.067.107.16.107.261v1.979zm4.374.853v-3.68h-.533l-.64 1.973-.693-1.973h-.533v3.68h.533v-2.24l.533 1.6h.267l.533-1.6v2.24h.533zm2.986-3.413-.32-.213H27.84v3.627h.533v-1.44h.267c.16 0 .32 0 .48-.107l.267-.267.16-.32a2.607 2.607 0 0 0-.003-.976l.003.016-.213-.32zm-.266 1.067-.053.267-.16.107a.51.51 0 0 1-.27-.001l.004.001h-.213v-1.227h.267l.213.053.16.16v.693zm2.72-1.334h-.427l-.8 3.68h.533l.16-.8h.693l.16.8h.533l-.853-3.68zm-.48 2.4.267-1.333.267 1.333h-.533zm3.893-.16-.853-2.24h-.48v3.68h.533v-2.187l.8 2.187h.533v-3.68H35.2v2.24zm3.2-2.24-.427 1.44-.48-1.44h-.533l.747 2.133v1.547h.533v-1.6l.693-2.08H38.4zm-20.8 4.694h.267v.747h.16v-.747h.267v-.107h-.693v.107zm2.133-.107-.32.853h.16l.053-.213h.373l.053.213h.213l-.373-.853h-.16zm0 .533.053-.373.16.32h-.267zm2.134 0h.16v.107l-.213.053-.018.001a.215.215 0 0 1-.142-.054l-.107-.213c0-.213.107-.32.267-.32a.16.16 0 0 1 .214.151v.01h.16c0-.213-.16-.32-.373-.32l-.32.107a.425.425 0 0 0-.107.376v-.003c0 .107 0 .213.107.32a.426.426 0 0 0 .284.108l.038-.002h-.002c.16 0 .267 0 .373-.16v-.32h-.373v.16zM24 28.48h-.213v.853h.587v-.16h-.373v-.693zm1.76 0h-.16v.853h.16v-.853zm1.76.533-.32-.533h-.16v.853h.16V28.8l.32.533h.16v-.853h-.16v.533zm1.6-.053h.427v-.16h-.427v-.213h.48v-.107h-.64v.853h.64v-.16h-.48v-.213zm3.947-.16h-.373v-.32h-.16v.853h.16v-.373h.32v.373h.16v-.853h-.107v.32zm1.6.16h.373v-.16h-.373v-.213h.48v-.107h-.64v.853h.64v-.16h-.48v-.213zm2.133 0c.16 0 .213-.107.213-.267l.001-.018a.215.215 0 0 0-.054-.142.473.473 0 0 0-.224-.055l-.045.002h.002-.373v.853h.213v-.373h.107l.053.107.213.267h.213l-.107-.16-.213-.213zm-.16-.16h-.107v-.213h.267a.107.107 0 0 1 0 .214.5.5 0 0 1-.163 0h.003zm1.813.16h.427v-.16h-.427v-.213h.48v-.107h-.64v.853h.64v-.16h-.48v-.213z"/></symbol><symbol id="logo-3" viewBox="0 0 57 32"><path d="m19.413 26.187.16.107-.32.213-.48.107c-.16 0-.267 0-.427-.107l-.32-.16-.213-.32a1.078 1.078 0 0 1 .002-.807l-.003.007.213-.32c.107-.053.213-.16.373-.16a1.392 1.392 0 0 1 .863.003l-.01-.003.32.16-.107.107h-.16l-.053-.053a.796.796 0 0 0-.4-.107h-.028.001l-.32.053-.267.16c0 .107-.107.16-.16.267v.64l.16.213.267.16h.48a.69.69 0 0 0 .374-.161l-.001.001h.053zm3.36-.587-.053.427-.267.32-.32.16c-.267.107-.587.107-.907 0a1.065 1.065 0 0 1-.323-.162l.003.002-.213-.32a1.078 1.078 0 0 1 .002-.807l-.003.007c0-.107.107-.213.213-.32l.32-.16c.32-.107.64-.107.907 0l.32.16a.907.907 0 0 1 .322.693l-.002.057v-.003zm-.32 0v-.267a.643.643 0 0 0-.422-.425l-.005-.001a1.052 1.052 0 0 0-.648.002l.008-.002-.267.16-.16.267v.587a.643.643 0 0 0 .422.425l.005.001h.64l.213-.16a.292.292 0 0 0 .16-.267l.053-.267zm2.614.373v.053l.053-.053v-.107l.8-1.173h.373v1.867h-.267v-1.493l-.747 1.173-.107.053h-.107l-.907-1.227v1.547h-.267v-1.867h.32l.747 1.173.053.107zm2.773-.106v.693h-.267v-1.867h1.013c.107 0 .16.107.267.16l.107.16.053.267v.213l-.213.213-.213.107-.373.053h-.373zm0-.214h.587l.16-.107.107-.107v-.373c0-.053 0-.107-.107-.16l-.373-.107h-.373v.8zm3.947.907h-.32l-.213-.533h-1.013l-.213.533h-.32l.853-1.867h.32l.907 1.867zm-1.44-.693h.8l-.32-.747-.107-.213v.213l-.373.747zm2.72-1.174 1.28 1.44v-1.44h.267v1.867h-.213l-1.333-1.493v1.44h-.267V24.64h.213zm3.68 1.12v.747h-.267v-.747l-.853-1.12H36l.533.8c.019.044.037.097.052.152l.002.008.053-.107.053-.053.533-.747v-.053h.32l-.747 1.12zm-11.84-4.32h.427a10.735 10.735 0 0 0 4.727-3.546l.019-.027c1.173-1.6 1.76-3.413 1.707-5.333l-2.133-1.813c.131.595.206 1.278.206 1.979a9.567 9.567 0 0 1-.871 4.001l.025-.06a11.28 11.28 0 0 1-4.065 4.774l-.042.026z"/><path d="M24.16 21.333v.053c2.027-1.227 3.52-2.933 4.373-4.907s.96-4.16.373-6.187l-3.04-2.667a11.335 11.335 0 0 1 1.53 5.722c0 3.105-1.234 5.922-3.239 7.987l.003-.003zm10.453-6.506a9.644 9.644 0 0 1-3.6 5.315l-.026.019-1.76 1.067a10.678 10.678 0 0 0 4.073-2.042l-.02.016c1.067-.907 2.027-2.027 2.56-3.253l-1.227-1.067z"/><path d="m34.133 14.56-1.813-1.6c0 1.813-.587 3.52-1.653 5.013s-2.56 2.72-4.373 3.573l1.227-.053a11.184 11.184 0 0 0 4.267-2.773 9.049 9.049 0 0 0 2.28-4.098l.013-.062zm-9.706-8.053L22.294 4.64a10.016 10.016 0 0 0-4.679 3.182l-.014.018a7.95 7.95 0 0 0-1.76 4.957v.003c0 1.973.747 3.84 2.133 5.333 1.387 1.6 3.36 2.667 5.493 3.2a11.268 11.268 0 0 0 3.228-7.91 11.26 11.26 0 0 0-2.341-6.89l.02.027zm14.56 7.733c0-2.293-1.067-4.533-2.933-6.133a10.88 10.88 0 0 0-7.105-2.623 10.9 10.9 0 0 0-3.638.62l.077-.024 12.96 11.307a8.09 8.09 0 0 0 .64-3.147z"/></symbol><symbol id="logo-4" viewBox="0 0 57 32"><path d="M12.853 11.253c-1.28 0-2.293.907-2.293 2.08 0 1.12 1.067 2.027 2.293 2.027 1.28 0 2.347-.907 2.347-2.027 0-1.173-1.067-2.08-2.347-2.08zm17.12-.64c0-1.6-.693-3.093-1.973-4.267-1.227-1.067-2.933-1.707-4.747-1.707-1.76 0-3.467.64-4.747 1.76a5.679 5.679 0 0 0-1.92 4.213v8.693s13.333-1.333 13.333-8.693zM5.867 22.133c0 1.12.533 2.133 1.387 2.933a4.994 4.994 0 0 0 3.252 1.227h.002c1.28 0 2.453-.427 3.307-1.227a3.94 3.94 0 0 0 1.386-2.874v-6.086s-9.333.907-9.333 6.027zm4.64 1.067c-.213 0-.48 0-.64-.16a1.053 1.053 0 0 1-.48-.48c-.053-.16-.107-.427-.053-.587 0-.213.16-.427.32-.533a.835.835 0 0 1 .64-.32h.693c.213.107.427.267.533.427a1.01 1.01 0 0 1-.106 1.386l-.001.001-.427.213-.48.107zm9.44-.533h-.907v.907h-.373v-2.24h1.44v.427h-1.013v.533h.907v.427zm2.24-.16c0 .213 0 .427-.107.533a.91.91 0 0 1-.826.534h-.028.001c-.16 0-.32 0-.533-.107l-.32-.373-.107-.587V22.4c0-.213 0-.427.107-.587a.91.91 0 0 1 .826-.534h.028-.001c.213 0 .373 0 .533.107.107.107.267.267.32.427.107.16.107.373.107.533v.16zm-.427-.107c0-.267-.053-.427-.16-.533a.427.427 0 0 0-.369-.213h-.004c-.16 0-.267.053-.373.213l-.107.533v.107c0 .213 0 .373.107.533.107.107.213.16.373.16s.32 0 .373-.16c.107-.107.107-.32.16-.533V22.4zm1.973.533s0-.107-.107-.16l-.32-.16a.61.61 0 0 1-.373-.16c-.267-.107-.427-.32-.427-.533l.107-.32c.107-.107.16-.213.32-.267l.427-.053.427.053.32.267.107.373h-.48c0-.107 0-.16-.107-.267a.418.418 0 0 0-.269-.053h.002l-.267.053-.107.213c0 .053 0 .107.107.16l.32.16c.267.053.48.16.587.267.16.16.213.267.213.48s-.107.32-.213.48c-.16.107-.373.16-.64.16-.16 0-.32 0-.48-.107l-.32-.267-.107-.373h.48c0 .213.16.373.427.373.107 0 .213 0 .267-.107l.107-.16zm2.507-1.226h-.693v1.867h-.48v-1.867h-.693v-.427h1.867v.427zm1.6.906h-.853v.587h1.067v.373h-1.6v-2.24h1.6v.427h-1.067v.533h.907v.373zm1.28.107h-.32v.853h-.427v-2.24h.8c.32 0 .533.107.64.213.16.107.213.267.213.533 0 .107 0 .267-.107.373 0 .107-.16.16-.267.213l.48.96h-.533l-.427-.853zm-.32-.32h.427l.267-.053.053-.267-.053-.267-.32-.053h-.373v.64zm2.88.427v.8h-.533v-2.293h.96l.427.107.32.267.107.427c0 .213-.107.373-.267.533-.16.107-.373.16-.64.16h-.373zm0-.374h.427c.107 0 .213 0 .267-.107l.107-.213c0-.107 0-.213-.107-.267a.372.372 0 0 0-.261-.107h-.432v.64zm2.933.214h-.907v.587h1.067v.373H33.28v-2.293h1.387v.427H33.6v.533h.907v.373zm2.187-.907h-.693v1.867h-.48V21.76h-.693v-.427h1.867v.427zm1.6.907h-.853v.587h1.067v.373h-1.547v-2.293h1.547v.427h-1.067v.533h.853v.373zm1.333.106h-.373v.853h-.533v-2.293h.907c.267 0 .48.107.587.213.16.107.213.267.213.533l-.053.373-.32.213.533.96h-.533l-.427-.853zm-.373-.373h.373l.267-.053.107-.267c0-.107 0-.213-.107-.267l-.267-.053h-.373v.64zm2.72.64-.053-.213-.373-.16c-.16 0-.267-.107-.373-.16a.555.555 0 0 1-.373-.533c0-.16 0-.267.107-.32 0-.107.16-.213.267-.267l.427-.053.48.053.267.267.107.373h-.48c0-.107 0-.16-.107-.267a.418.418 0 0 0-.269-.053h.002l-.267.053-.107.213.16.16.32.16c.267.053.427.16.533.267.16.16.213.267.213.48s-.053.32-.213.48c-.16.107-.373.16-.587.16s-.373 0-.533-.107l-.32-.267-.107-.373h.533c0 .213.107.373.427.373.107 0 .16 0 .267-.107l.053-.16z"/></symbol><symbol id="logo-5" viewBox="0 0 57 32"><path d="M14.293 23.84c.107.16.16.373.16.533l-.053.373-.213.267c-.267.213-.587.267-.907.267h-1.547v-3.307h1.493c.32 0 .64.053.853.213l.213.267.107.373c0 .16-.053.373-.213.533l-.427.213c.213 0 .373.16.533.267zm-1.813-.48h.64c.107 0 .267 0 .373-.107l.107-.16.053-.16v-.16l-.16-.16c-.107-.107-.267-.107-.427-.107h-.587v.853zm1.067 1.28.16-.16v-.373l-.107-.16c-.16-.107-.32-.107-.48-.107h-.64v.907h.64c.16 0 .32 0 .48-.107zm3.84.64L16.534 24h-.32v1.28h-.747v-3.307h1.387c.373 0 .693.107.96.267.213.213.32.427.32.693s-.053.533-.213.693c-.16.16-.427.267-.64.32l.907 1.333h-.8zm-1.174-1.76h.587c.427 0 .64-.16.64-.48l-.053-.213a.528.528 0 0 0-.107-.16l-.48-.16h-.587v1.067zm5.12 1.12h-1.44l-.267.64h-.747l1.333-3.253h.8l1.333 3.253h-.747l-.267-.64zm-.213-.533-.533-1.387-.533 1.387h1.067zm5.173 1.173H25.6L24 23.04v2.24h-.747v-3.307h.693l1.6 2.24v-2.24h.747v3.307zm4.107-.747c-.107.213-.373.427-.64.533-.32.16-.64.213-1.013.213h-1.28v-3.307H28.8c.373 0 .693.053 1.067.213.213.107.48.32.587.533.143.254.228.557.228.88s-.084.626-.233.889l.005-.009zm-.8-.106a1.17 1.17 0 0 0-.001-1.601l.001.001c-.267-.213-.533-.32-.907-.267h-.533v2.133h.533c.32 0 .64-.107.907-.267zm-7.787-20.8s9.28 3.2 9.067 7.84v7.893s-9.28-3.2-9.067-7.893v-7.84zM39.2 17.493a13.925 13.925 0 0 1 5.867-1.973v-2.453a12.024 12.024 0 0 0-5.842 4.389l-.025.037z"/><path d="M38.133 18.24c1.44-2.667 3.947-4.693 6.933-5.707V5.44s-13.227 4.587-12.96 11.2v11.2l1.547-.587v-1.067c.32-3.093 1.92-5.92 4.48-7.947z"/><path d="M36.853 22.4c.107-.747.213-1.547.48-2.293a10.302 10.302 0 0 0-2.826 6.756v.017l2.56-1.227c-.213-1.067-.32-2.133-.213-3.2zm.534 0a10.201 10.201 0 0 0 .172 3.053l-.012-.066c3.627-1.973 7.68-5.067 7.52-8.747v-.32c-2.56.267-5.013 1.28-6.88 2.933a11.737 11.737 0 0 0-.8 3.2z"/></symbol><symbol id="logo-6" viewBox="0 0 57 32"><path d="M28.48 14.613a1.586 1.586 0 0 1-.319-1.071v.005V12c0-.427.107-.8.32-1.067.213-.213.587-.373 1.067-.373.533 0 .907.107 1.067.32.267.267.373.587.32.907v.373h-.853v-.693c0-.107-.107-.16-.16-.213a.526.526 0 0 0-.641.001l.001-.001c-.107 0-.16.107-.16.213v2.24l.053.533.213.107.213.053c.107 0 .213 0 .32-.107l.107-.213v-.747h.907v.373c0 .32-.053.64-.267.96-.213.213-.533.32-1.067.32s-.907-.107-1.067-.373zm3.68 0c-.267-.213-.373-.533-.373-1.067v-1.6c0-.427.107-.8.373-1.067.213-.16.533-.32 1.067-.32s.907.16 1.12.373c.213.213.32.533.32 1.067v1.6c0 .427-.107.8-.32 1.067-.213.213-.587.32-1.067.32-.533 0-.907-.107-1.12-.373zm1.493-.373.107-.48v-1.973c0-.16 0-.32-.107-.48l-.16-.107a.51.51 0 0 0-.27.001l.004-.001a.51.51 0 0 0-.217 0l.003-.001-.16.107c-.107.16-.16.32-.107.48v1.973c0 .16 0 .32.107.533l.16.107a.64.64 0 0 0 .484-.001l-.004.002.16-.16zm2.08-3.573h.96l.693 2.933.747-2.987h.907l.053 4.32h-.64l-.107-2.987-.693 2.987h-.533l-.693-2.987-.16 2.987h-.693l.107-4.267zm4.427 0h1.493c.853 0 1.28.373 1.28 1.173s-.48 1.173-1.333 1.173h-.533v1.92h-.907v-4.267zm1.28 1.813h.267l.213-.16.16-.48-.053-.373-.053-.107-.16-.107c-.107-.053-.267-.107-.373-.053h-.373v1.28h.373zm2.827-1.813h.907l1.067 4.267h-.907l-.16-1.013h-.907l-.213 1.013h-.853l1.067-4.267zm.8 2.773-.373-1.813-.32 1.813h.693zm1.92-2.773h.64l1.227 2.4v-2.4h.747v4.267h-.587l-1.227-2.56v2.56h-.853v-4.267zm4.373 2.666-1.013-2.667h.853l.64 1.653.533-1.707h.853l-1.013 2.667v1.653h-.853v-1.6zM29.867 16.8v.267h-.693v1.707h-.373v-1.707h-.747V16.8h1.813zm2.346 1.973h-.373l-.213-.533h-1.013l-.213.533h-.32l.907-1.973h.32l.907 1.973zm-1.493-.64h.853l-.373-.8-.053-.213v.107l-.053.107-.373.8zm3.04.48h.16c.115-.001.225-.021.328-.056l-.008.002.107-.053v-.48h-.427v-.16h.693v.747a1.37 1.37 0 0 1-.58.213l-.007.001h-.267c-.16 0-.32 0-.48-.107a1.067 1.067 0 0 1-.377-.162l.004.002-.213-.32-.107-.427c0-.16 0-.267.107-.427 0-.107.107-.213.213-.32.107-.053.213-.16.373-.16a1.514 1.514 0 0 1 .753-.106l-.007-.001c.142.035.266.09.378.163l-.005-.003.16.107-.053.107h-.213l-.16-.107a1.092 1.092 0 0 0-.368-.106h-.005a1.068 1.068 0 0 0-.379.109l.006-.003-.267.107-.16.267v.693c0 .107.107.213.213.267a.795.795 0 0 0 .545.214l.044-.001h-.002zm2.88-.053h1.013v.213h-1.28V16.8h.267v1.76zm2.027.213H38.4V16.8h.32v1.973zM39.84 16.8v.053l1.387 1.493v-1.547h.267v1.973h-.267l-1.333-1.493v1.547h-.267v-1.973h.16zm3.893 0v.213h-1.067v.693h.853v.213h-.853v.64h1.067v.213h-1.387v-1.973h1.387zM11.307 4.64 25.067 8v11.733l-13.76-3.36V4.64zM10.4 3.573v13.493l15.52 3.733V7.466l-15.467-3.84z"/><path d="M18.72 27.04 3.2 23.253V9.813l15.52 3.84v13.333z"/><path d="m10.667 4.48 13.547 3.307-5.76 5.013L4.907 9.44l5.76-4.96zm-.267-.853L3.2 9.814l15.52 3.84 7.2-6.24-15.467-3.787zm9.173 22.666 6.4-5.493-6.4-1.547v7.04z"/></symbol></defs></svg>